<?xml version="1.0" encoding="utf-8"?>
<!-- Generator: Adobe Illustrator 16.0.0, SVG Export Plug-In . SVG Version: 6.00 Build 0)  -->
<!DOCTYPE svg PUBLIC "-//W3C//DTD SVG 1.1//EN" "http://www.w3.org/Graphics/SVG/1.1/DTD/svg11.dtd">
<svg version="1.1" xmlns="http://www.w3.org/2000/svg" xmlns:xlink="http://www.w3.org/1999/xlink" x="0px" y="0px"
	 width="339.333px" height="403.48px" viewBox="0 0 339.333 403.48" enable-background="new 0 0 339.333 403.48"
	 xml:space="preserve">
<g id="Layer_1">
	<rect x="26.9" y="7.525" fill="#F7931E" width="288" height="292"/>
</g>
<g id="Layer_2">
	<circle fill="none" stroke="#FFFFFF" stroke-width="27" stroke-miterlimit="10" cx="176.9" cy="155.525" r="86.073"/>
	<rect x="64.9" y="109.525" fill="#F7931E" width="93" height="95"/>
</g>
<g id="Layer_3">
	<path fill="#FFFFFF" d="M123.9,156.525c0,6.627-5.373,12-12,12h-47c-6.627,0-12-5.373-12-12v-1c0-6.627,5.373-12,12-12h47
		c6.627,0,12,5.373,12,12V156.525z"/>
	<path fill="#FFFFFF" d="M135.9,127.525c0,6.627-5.373,12-12,12h-47c-6.627,0-12-5.373-12-12v-1c0-6.627,5.373-12,12-12h47
		c6.627,0,12,5.373,12,12V127.525z"/>
	<path fill="#FFFFFF" d="M135.9,185.525c0,6.627-5.373,12-12,12h-47c-6.627,0-12-5.373-12-12v-1c0-6.627,5.373-12,12-12h47
		c6.627,0,12,5.373,12,12V185.525z"/>
	<g>
		<path fill="#F7931E" d="M24.009,309.511c5.496,0,10.168,1.936,14.016,5.805c3.847,3.87,5.771,8.531,5.771,13.983v45.116
			c0,5.497-1.936,10.169-5.805,14.016c-3.87,3.849-8.531,5.771-13.983,5.771c-5.498,0-10.158-1.935-13.983-5.805
			c-3.826-3.868-5.739-8.53-5.739-13.982v-45.116c0-5.496,1.935-10.168,5.805-14.017C13.96,311.436,18.601,309.511,24.009,309.511z
			 M30.803,329.036c0-1.979-0.692-3.661-2.078-5.046c-1.385-1.386-3.067-2.078-5.046-2.078c-1.979,0-3.672,0.692-5.079,2.078
			c-1.408,1.385-2.111,3.066-2.111,5.046v45.247c0,1.979,0.703,3.661,2.111,5.046c1.407,1.386,3.1,2.078,5.079,2.078
			c1.979,0,3.661-0.692,5.046-2.078c1.385-1.385,2.078-3.066,2.078-5.046V329.036z"/>
		<path fill="#F7931E" d="M74.466,310.567c6.948,0,12.048,1.913,15.303,5.738c2.858,3.342,4.287,8.004,4.287,13.983v12.005
			c0,5.849-2.221,10.795-6.662,14.841l9.233,36.079H83.146l-7.559-31.133c-0.353,0-0.726,0-1.122,0h-7.189v31.133H54.811v-82.646
			H74.466z M81.92,330.487c0-4.793-2.375-7.19-7.124-7.19h-7.52v26.45h7.52c1.979,0,3.661-0.703,5.046-2.111
			c1.385-1.406,2.078-3.1,2.078-5.078V330.487z"/>
		<path fill="#F7931E" d="M146.492,373.425c0,5.453-1.913,10.115-5.738,13.983c-3.826,3.87-8.443,5.805-13.852,5.805h-19.59V310.5
			h19.59c5.452,0,10.081,1.936,13.885,5.805c3.803,3.87,5.705,8.509,5.705,13.917V373.425z M119.778,380.879h7.52
			c1.979,0,3.649-0.715,5.013-2.144c1.363-1.429,2.045-3.11,2.045-5.046v-43.27c0-1.979-0.692-3.671-2.078-5.079
			c-1.385-1.406-3.045-2.11-4.98-2.11h-7.52V380.879z"/>
		<path fill="#F7931E" d="M157.438,393.213V310.5h35.487v12.532h-23.021v22.559h16.819v12.532h-16.819v22.558h23.021v12.532H157.438
			z"/>
		<path fill="#F7931E" d="M221.155,310.567c6.947,0,12.048,1.913,15.302,5.738c2.858,3.342,4.288,8.004,4.288,13.983v12.005
			c0,5.849-2.222,10.795-6.662,14.841l9.233,36.079h-13.481l-7.559-31.133c-0.353,0-0.726,0-1.121,0h-7.189v31.133h-12.467v-82.646
			H221.155z M228.608,330.487c0-4.793-2.375-7.19-7.124-7.19h-7.519v26.45h7.519c1.979,0,3.661-0.703,5.046-2.111
			c1.386-1.406,2.078-3.1,2.078-5.078V330.487z"/>
		<path fill="#F7931E" d="M254,393.213V310.5h35.486v12.532h-23.02v22.559h16.819v12.532h-16.819v22.558h23.02v12.532H254z"/>
		<path fill="#F7931E" d="M317.717,310.567c6.947,0,12.048,1.913,15.302,5.738c2.858,3.342,4.288,8.004,4.288,13.983v12.005
			c0,5.849-2.222,10.795-6.662,14.841l9.233,36.079h-13.481l-7.559-31.133c-0.353,0-0.726,0-1.121,0h-7.189v31.133h-12.467v-82.646
			H317.717z M325.17,330.487c0-4.793-2.375-7.19-7.124-7.19h-7.519v26.45h7.519c1.979,0,3.661-0.703,5.046-2.111
			c1.386-1.406,2.078-3.1,2.078-5.078V330.487z"/>
	</g>
</g>
</svg>
