<?xml version="1.0" encoding="utf-8"?>
<!-- Generator: Adobe Illustrator 16.0.0, SVG Export Plug-In . SVG Version: 6.00 Build 0)  -->
<!DOCTYPE svg PUBLIC "-//W3C//DTD SVG 1.1//EN" "http://www.w3.org/Graphics/SVG/1.1/DTD/svg11.dtd">
<svg version="1.1" xmlns="http://www.w3.org/2000/svg" xmlns:xlink="http://www.w3.org/1999/xlink" x="0px" y="0px"
	 width="348.333px" height="403.48px" viewBox="0 0 348.333 403.48" enable-background="new 0 0 348.333 403.48"
	 xml:space="preserve">
<g id="Layer_1">
	<rect x="26.9" y="7.525" fill="#F7931E" width="288" height="292"/>
</g>
<g id="Layer_2">
	<circle fill="none" stroke="#FFFFFF" stroke-width="27" stroke-miterlimit="10" cx="176.9" cy="155.525" r="86.073"/>
	<rect x="64.9" y="109.525" fill="#F7931E" width="93" height="95"/>
</g>
<g id="Layer_3">
	<path fill="#FFFFFF" d="M123.9,156.525c0,6.627-5.373,12-12,12h-47c-6.627,0-12-5.373-12-12v-1c0-6.627,5.373-12,12-12h47
		c6.627,0,12,5.373,12,12V156.525z"/>
	<path fill="#FFFFFF" d="M135.9,127.525c0,6.627-5.373,12-12,12h-47c-6.627,0-12-5.373-12-12v-1c0-6.627,5.373-12,12-12h47
		c6.627,0,12,5.373,12,12V127.525z"/>
	<path fill="#FFFFFF" d="M135.9,185.525c0,6.627-5.373,12-12,12h-47c-6.627,0-12-5.373-12-12v-1c0-6.627,5.373-12,12-12h47
		c6.627,0,12,5.373,12,12V185.525z"/>
	<text transform="matrix(1 0 0 1 0 393.2134)" fill="#F7931E" font-family="'Bebas'" font-size="92.8703">ORDERER</text>
</g>
</svg>
